<?xml version="1.0" encoding="UTF-8" standalone="no"?>
<svg width="22px" height="13px" viewBox="0 0 22 13" version="1.1" xmlns="http://www.w3.org/2000/svg" xmlns:xlink="http://www.w3.org/1999/xlink" xmlns:sketch="http://www.bohemiancoding.com/sketch/ns">
    <title>Untitled 2</title>
    <description>Created with Sketch (http://www.bohemiancoding.com/sketch)</description>
    <defs></defs>
    <g id="Page-1" stroke="none" stroke-width="1" fill="none" fill-rule="evenodd" sketch:type="MSPage">
        <path d="M10.752,1.256 C5.328,1.256 0.72,6.68 0.72,6.68 L0.72,6.896 C0.72,6.896 5.304,12.368 10.728,12.368 C16.152,12.368 20.76,6.92 20.76,6.92 L20.76,6.728 C20.76,6.728 16.176,1.256 10.752,1.256 Z M10.704,10.208 C8.88,10.208 7.392,8.72 7.392,6.872 C7.392,5.048 8.88,3.56 10.704,3.56 C12.552,3.56 14.04,5.048 14.04,6.872 C14.04,8.72 12.552,10.208 10.704,10.208 Z M10.704,5.336 C9.864,5.336 9.192,6.032 9.192,6.872 C9.192,7.712 9.864,8.384 10.704,8.384 C11.544,8.384 12.24,7.712 12.24,6.872 C12.24,6.032 11.544,5.336 10.704,5.336 Z" id="E" fill="#000000" sketch:type="MSShapeGroup"></path>
    </g>
</svg>