<?xml version="1.0" encoding="UTF-8" standalone="no"?>
<svg width="22px" height="21px" viewBox="0 0 22 21" version="1.1" xmlns="http://www.w3.org/2000/svg" xmlns:xlink="http://www.w3.org/1999/xlink" xmlns:sketch="http://www.bohemiancoding.com/sketch/ns">
    <title>Untitled</title>
    <description>Created with Sketch (http://www.bohemiancoding.com/sketch)</description>
    <defs></defs>
    <g id="Page-1" stroke="none" stroke-width="1" fill="none" fill-rule="evenodd" sketch:type="MSPage">
        <path d="M11.064,0.152 C5.496,0.152 0.96,4.688 0.96,10.256 C0.96,15.824 5.496,20.36 11.064,20.36 C16.656,20.36 21.168,15.824 21.168,10.256 C21.168,4.688 16.656,0.152 11.064,0.152 Z M11.736,16.304 C11.448,16.592 11.016,16.712 10.56,16.712 C10.104,16.712 9.696,16.568 9.408,16.304 C9.12,16.016 8.952,15.608 8.976,15.176 C8.952,14.744 9.12,14.336 9.408,14.048 C9.72,13.784 10.104,13.64 10.56,13.64 C11.016,13.64 11.424,13.784 11.736,14.048 C12.048,14.336 12.192,14.744 12.192,15.176 C12.192,15.608 12.048,16.016 11.736,16.304 Z M14.448,8.576 C14.28,8.96 14.088,9.296 13.848,9.584 C13.608,9.848 13.368,10.088 13.08,10.304 C12.816,10.496 12.6,10.688 12.384,10.904 C12.192,11.12 12.024,11.36 11.88,11.624 C11.76,11.864 11.688,12.2 11.688,12.632 L11.688,12.92 L9.576,12.92 L9.312,12.92 L9.288,12.656 C9.288,12.464 9.264,12.272 9.264,12.08 C9.264,11.72 9.312,11.408 9.384,11.096 C9.504,10.688 9.672,10.304 9.864,9.992 C10.08,9.68 10.32,9.416 10.584,9.176 C10.824,8.96 11.064,8.768 11.256,8.576 C11.472,8.384 11.616,8.192 11.76,8 C11.856,7.832 11.928,7.64 11.928,7.4 C11.928,7.064 11.832,6.824 11.664,6.656 C11.544,6.512 11.256,6.416 10.752,6.416 C10.584,6.416 10.416,6.416 10.248,6.464 C10.056,6.488 9.864,6.536 9.696,6.608 C9.504,6.68 9.312,6.752 9.144,6.848 C8.976,6.944 8.832,7.016 8.688,7.112 L8.448,7.304 L7.344,5.216 L7.56,5.072 C7.992,4.784 8.496,4.52 9.072,4.328 C9.648,4.136 10.32,4.04 11.112,4.04 C12.192,4.04 13.08,4.304 13.704,4.856 C14.352,5.408 14.688,6.176 14.688,7.088 C14.688,7.664 14.616,8.168 14.448,8.576 Z" id="?" fill="#000000" sketch:type="MSShapeGroup"></path>
    </g>
</svg>