<?xml version="1.0" encoding="UTF-8" standalone="no"?>
<svg width="21px" height="13px" viewBox="0 0 21 13" version="1.1" xmlns="http://www.w3.org/2000/svg" xmlns:xlink="http://www.w3.org/1999/xlink" xmlns:sketch="http://www.bohemiancoding.com/sketch/ns">
    <title>Untitled</title>
    <description>Created with Sketch (http://www.bohemiancoding.com/sketch)</description>
    <defs></defs>
    <g id="Page-1" stroke="none" stroke-width="1" fill="none" fill-rule="evenodd" sketch:type="MSPage">
        <path d="M17.616,6.536 L20.52,5.6 L18.072,4.424 C17.928,2.408 16.272,0.824 14.208,0.824 C12.072,0.824 10.344,2.552 10.344,4.688 L10.344,4.808 C10.176,5.024 10.008,5.24 9.84,5.432 C8.208,5.528 5.808,5.456 4.752,4.448 C3.408,3.152 4.008,6.584 6.648,7.688 C3.456,8.864 0.432,7.376 0.432,7.376 C0.432,7.376 2.592,12.272 9.216,12.272 C14.136,12.272 15.984,9.296 16.608,7.736 C17.016,7.4 17.376,6.992 17.616,6.536 Z M15.024,2.744 C15.648,2.744 16.128,3.224 16.128,3.848 C16.128,4.448 15.648,4.928 15.024,4.928 C14.424,4.928 13.944,4.448 13.944,3.848 C13.944,3.224 14.424,2.744 15.024,2.744 Z" id="B" fill="#000000" sketch:type="MSShapeGroup"></path>
    </g>
</svg>